<svg width="25" height="25" viewBox="0 0 25 25" fill="none" xmlns="http://www.w3.org/2000/svg">
<path d="M18.75 22.5131H1.5V3.76315H12.0375L13.554 2.30215L13.515 2.26315H1.5C0.671625 2.26315 0 2.93477 0 3.76315V22.5131C0 23.3415 0.671625 24.0131 1.5 24.0131H18.75C19.5784 24.0131 20.25 23.3415 20.25 22.5131V11.529L18.75 12.9608V22.5131ZM22.8488 0.977648C22.1719 0.328898 21.4249 0 20.628 0C19.3808 0 18.471 0.8055 18.2235 1.05227C17.8725 1.39877 7.93052 11.3262 7.93052 11.3262C7.85252 11.4056 7.79552 11.5028 7.76627 11.6108C7.49702 12.6056 6.1474 17.0246 6.1339 17.0685C6.06415 17.295 6.1264 17.5418 6.29327 17.7064C6.35139 17.7648 6.42048 17.811 6.49655 17.8426C6.57263 17.8741 6.65419 17.8903 6.73655 17.8902C6.80105 17.8902 6.86592 17.8808 6.92965 17.8609C6.9754 17.8455 11.535 16.371 12.2854 16.1472C12.3844 16.1179 12.474 16.0643 12.5483 15.9919C13.0219 15.5247 22.1603 6.52805 22.8998 5.76417C23.6644 4.97517 24.0446 4.15502 24.03 3.3244C24.0161 2.5039 23.6171 1.71415 22.8488 0.977648ZM21.8224 4.72013C21.405 5.15062 18.1369 8.38013 12.1088 14.3186L11.6475 14.7735C10.9564 14.9873 9.30148 15.519 8.05048 15.9225C8.45323 14.5924 8.9366 12.9855 9.15223 12.2254C10.4404 10.9391 18.9581 2.43452 19.2817 2.11502C19.3447 2.052 19.9196 1.49962 20.628 1.49962C21.03 1.49962 21.4174 1.683 21.8107 2.06025C22.281 2.51137 22.5232 2.94487 22.53 3.34987C22.5375 3.76687 22.2994 4.22775 21.8224 4.72013Z" fill="#263138"/>
</svg>
